<?xml version="1.0" encoding="utf-8"?>
<!-- Generator: Adobe Illustrator 23.0.2, SVG Export Plug-In . SVG Version: 6.00 Build 0)  -->
<svg version="1.1" id="Layer_1" xmlns="http://www.w3.org/2000/svg" xmlns:xlink="http://www.w3.org/1999/xlink" x="0px" y="0px"
	 viewBox="0 0 512 431" style="enable-background:new 0 0 512 431;" xml:space="preserve">
<style type="text/css">
	.st0{fill:#1D70B8;}
</style>
<g>
	<path class="st0" d="M475,0H37C16.5,0,0,16.5,0,37v67.5h512V37C512,16.5,495.5,0,475,0L475,0z M64.1,68.2c-8.9,0-16-7.2-16-16
		s7.2-16,16-16c8.9,0,16,7.2,16,16S72.9,68.2,64.1,68.2z M129.3,68.2c-8.9,0-16-7.2-16-16s7.2-16,16-16c8.9,0,16,7.2,16,16
		S138.2,68.2,129.3,68.2z M197.5,68.2c-8.9,0-16-7.2-16-16s7.2-16,16-16s16,7.2,16,16S206.4,68.2,197.5,68.2z"/>
	<path class="st0" d="M0,136.3v257.8c0,20.4,16.5,37,37,37H475c20.4,0,37-16.5,37-37V136.3L0,136.3z M168.7,255.3L147.9,316
		c-2.2,6.3-8.1,10.6-14.8,10.8c-0.1,0-0.2,0-0.3,0c-6.6,0-12.5-4.1-14.9-10.2l-7.5-19.7l-6.6,19.2c-2.2,6.3-8.1,10.6-14.8,10.8
		c-0.1,0-0.2,0-0.3,0c-6.6,0-12.5-4.1-14.9-10.2l-23.2-60.7c-3.1-8.2,1-17.4,9.2-20.6c8.2-3.2,17.4,1,20.6,9.2l7.5,19.7l6.6-19.2
		c3.3-11.6,23.1-16.5,30-0.5l7.5,19.7l6.6-19.2c2.9-8.3,11.9-12.8,20.3-9.9C167.2,237.9,171.6,247,168.7,255.3L168.7,255.3z
		 M315.2,255.3L294.3,316c-2.2,6.3-8.1,10.6-14.8,10.8c-0.1,0-0.2,0-0.3,0c-6.6,0-12.5-4.1-14.9-10.2l-7.5-19.7l-6.6,19.2
		c-2.2,6.3-8.1,10.6-14.8,10.8c-0.1,0-0.2,0-0.3,0c-6.6,0-12.5-4.1-14.9-10.2L197,255.8c-3.1-8.2,1-17.4,9.2-20.6
		c8.2-3.2,17.4,1,20.6,9.2l7.5,19.7l6.6-19.2c3.7-12.3,24-15.3,30-0.5l7.5,19.7L285,245c2.9-8.3,11.9-12.8,20.3-9.9
		C313.6,237.9,318,247,315.2,255.3L315.2,255.3z M461.6,255.3L440.7,316c-2.2,6.3-8.1,10.6-14.8,10.8c-0.1,0-0.2,0-0.3,0
		c-6.6,0-12.5-4.1-14.9-10.2l-7.5-19.7l-6.6,19.2c-2.2,6.3-8.1,10.6-14.8,10.8c-0.1,0-0.2,0-0.3,0c-6.6,0-12.5-4.1-14.9-10.2
		l-23.2-60.7c-3.1-8.2,1-17.4,9.2-20.6c8.2-3.2,17.4,1,20.6,9.2l7.5,19.7l6.6-19.2c3.6-11.9,23.3-16.3,30-0.5l7.5,19.7l6.6-19.2
		c2.9-8.3,11.9-12.8,20.3-9.9C460,237.9,464.5,247,461.6,255.3L461.6,255.3z"/>
</g>
</svg>
